<svg width="377" height="64.64890629676162" viewBox="0 0 370 63.44852872626472" class="css-1j8o68f"><defs id="SvgjsDefs1273"></defs><g id="SvgjsG1274" featurekey="symbolFeature-0" transform="matrix(0.546912162295879,0,0,0.546912162295879,0.00021071673733476175,-3.281472973775274)" fill="#8dc6ff"><title xmlns="http://www.w3.org/2000/svg">Modern Business 6 expandlines</title><path xmlns="http://www.w3.org/2000/svg" d="M64,32c7.2,0,13-5.8,13-13S71.2,6,64,6c-7.2,0-13,5.8-13,13c0,0,0,0,0,0C51,26.2,56.8,32,64,32z M64,10c5,0,9,4,9,9  s-4,9-9,9s-9-4-9-9c0,0,0,0,0,0C55,14,59,10,64,10z"></path><path xmlns="http://www.w3.org/2000/svg" d="M36.8,63.2c-3.3-6.4-2.1-14.2,2.9-19.4c6.1-6.3,16.1-6.5,22.4-0.4c0.1,0.1,0.3,0.3,0.4,0.4c0.8,0.8,2.1,0.8,2.9,0  c6.1-6.3,16.1-6.5,22.4-0.4c0.1,0.1,0.3,0.3,0.4,0.4c6.3,6.6,6.3,16.9,0,23.5l-4.2,4.3c0.7,0,1.4-0.1,2-0.3c1.5-0.5,3.1-0.8,4.7-0.9  l0.3-0.3c7.8-8.1,7.8-21,0-29.1C83.8,33.5,72,32.9,64,39.7c-8-6.8-19.8-6.2-27.1,1.3c-6,6.2-7.6,15.5-3.9,23.4  C34.3,64,35.5,63.6,36.8,63.2z"></path><path xmlns="http://www.w3.org/2000/svg" d="M127.7,83.5c-1.1-2.6-6.7-2.3-7-2.3c-1.9,0.3-6,0.8-14.1,4.8C96.5,91,85.7,96,74,96.9c-6.5,0.6-14.4-1.9-17.6-6.3  c-0.7-0.8-0.8-2.2-0.5-2.5c0.8-1,5.6-1.6,15.3,0.9c13.2,3.7,20.1-2.9,20.9-3.8c2.5-2.3,5.7-5.8,4-8.7c-1.5-2.6-5.6-2.4-8.9-1.4  c-3.4,1-7.1,0.3-10.2-0.6c-3.4-0.9-6.7-2.2-10-3.4c-4.7-2-9.6-3.5-14.6-4.5c-8.5-1.6-17.1,0.2-25.6,5.2c-6.9,4-12.8,9.6-17.2,16.3  c-8.9,13.8-10,24.3-9.5,30.6c0.1,1.6,1.2,2.8,2.7,3.2c1.6,0.4,3.2-0.3,4.1-1.6c0.7-0.9,1.1-1.9,1.3-3c0-0.2,0.1-0.5,0.2-0.8  c0.9-3.8,3.3-7.1,6.6-9.2l0.3-0.1c4.4-2.4,8.5-0.7,17.3,3.4c3.7,1.8,8.4,3.9,14.1,6.1c26,8.9,44.2-2,55.6-10.9  c9.5-7.4,20.4-14.8,20.4-14.8C124.5,89.8,129.2,86.9,127.7,83.5z M120.6,87.5c-0.1,0.1-11.1,7.5-20.7,15  c-10.7,8.4-27.7,18.5-51.8,10.3c-5.5-2.1-9.9-4.1-13.8-5.9c-8.8-4.1-14.6-6.8-20.9-3.3l-0.1,0c-0.1,0-0.2,0.1-0.3,0.1  c-4.2,2.7-7.2,6.9-8.4,11.7c-0.1,0.6-0.3,1.3-0.5,1.9c-0.3-5.8,1.1-15,8.9-27.2c4-6.2,9.5-11.3,15.9-15c5.3-3.3,11.3-5.1,17.6-5.2  c1.8,0,3.6,0.2,5.3,0.5c4.8,1,9.4,2.5,13.9,4.4c3.3,1.3,6.8,2.6,10.4,3.6c3.5,1,8,1.9,12.4,0.6c1.3-0.5,2.7-0.6,4.1-0.4  c-0.2,0.5-0.9,1.7-3.2,3.8c0,0-0.1,0.1-0.1,0.1c-0.2,0.2-5.6,5.9-17,2.7c-10.5-2.7-17.1-2.6-19.5,0.5c-1.4,1.8-1.3,4.2,0.3,7.1  c0.1,0.1,4.7,8.8,21.3,8.2c12.4-1,23.6-6.1,34-11.3c7.6-3.8,11-4.2,12.9-4.5c0.8-0.1,1.7-0.2,2.5-0.1  C122.8,86,121.7,86.8,120.6,87.5L120.6,87.5z"></path></g><g id="SvgjsG1275" featurekey="nameFeature-0" transform="matrix(1.381249042632988,0,0,1.381249042632988,84.95623115610042,-2.811800181179944)" fill="#22313f"><path d="M21.445 11.777000000000001 l5.8594 0 l0 28.223 l-5.8594 0 l0 -11.602 l-11.934 0 l0 11.602 l-5.8594 0 l0 -28.223 l5.8594 0 l0 11.523 l11.934 0 l0 -11.523 z M52.75403125 29.668 l-0.058594 1.3477 l-14.883 0 c0.23438 3.3398 2.4609 4.9414 5.1367 4.9414 c2.0117 0 3.5742 -0.9375 4.3359 -2.7148 l5.1563 0.76172 c-1.3281 4.0625 -4.9414 6.3867 -9.4531 6.3867 c-6.4844 0 -10.723 -3.8281 -10.723 -10.43 s4.3555 -10.469 10.547 -10.469 c5.6836 0 9.9219 3.1445 9.9414 10.176 z M42.852031249999996 23.477 c-2.5586 0 -4.3359 1.1914 -4.8828 3.8672 l9.2188 0 c-0.29297 -2.5586 -2.0313 -3.8672 -4.3359 -3.8672 z M73.49609375 34.5508 c0 2.4609 0.23438 4.0234 0.48828 4.9023 l0 0.54688 l-5.2539 0 l-0.44922 -2.1875 c-1.5039 1.8164 -4.1016 2.5781 -6.4453 2.5781 c-3.1641 0 -6.25 -1.4063 -6.25 -5.5859 c0 -4.1602 3.1055 -5.5664 7.3047 -6.4844 l3.3008 -0.74219 c1.4258 -0.33203 1.9336 -0.82031 1.9336 -1.6406 c0 -1.9727 -1.7969 -2.5195 -3.3789 -2.5195 c-2.0313 0 -3.5742 0.80078 -3.9258 3.0664 l-4.9805 -0.89844 c0.83984 -4.1602 3.8867 -6.0547 9.2188 -6.0547 c4.0234 0 8.4375 1.1914 8.4375 7.2461 l0 7.7734 z M63.59379375 36.582 c2.6758 0 4.8242 -1.7773 4.8242 -5.7617 l-4.7656 1.3477 c-1.5625 0.37109 -2.6953 0.91797 -2.6953 2.2656 c0 1.4453 1.1914 2.1484 2.6367 2.1484 z M78.9648875 40 l0 -30 l5.6836 0 l0 30 l-5.6836 0 z M97.94959375 40 c-3.9063 0 -6.1328 -2.2656 -6.1328 -6.2695 l0 -9.4922 l-3.9453 0 l0 -4.3164 l1.2695 0 c2.1289 0 3.3008 -0.82031 3.3008 -3.8281 l0 -2.6563 l5.0781 0 l0 6.4844 l4.1406 0 l0 4.3164 l-4.1406 0 l0 8.8867 c0 1.7969 0.87891 2.5977 2.3242 2.5977 l1.8164 0 l0 4.2773 l-3.7109 0 z M118.16446875 19.531 c4.4922 0 7.1875 2.5 7.1875 7.5195 l0 12.949 l-5.6445 0 l0 -12.031 c0 -2.9492 -1.6406 -3.9258 -3.6523 -3.9258 c-2.0898 0 -4.375 1.0352 -4.4141 4.8828 l0 11.074 l-5.625 0 l0 -30 l5.625 0 l0 12.324 c1.4258 -1.7383 3.6719 -2.793 6.5234 -2.793 z M137.3632625 34.8242 l8.8477 0 l0 5.1758 l-14.707 0 l0 -28.223 l5.8594 0 l0 23.047 z M152.81255 16.914 c-1.7773 0 -3.2617 -1.4453 -3.2617 -3.2422 c0 -1.7773 1.4844 -3.2227 3.2617 -3.2227 c1.7383 0 3.2227 1.4453 3.2227 3.2227 c0 1.7969 -1.4844 3.2422 -3.2227 3.2422 z M149.94145 40 l0 -20.078 l5.6641 0 l0 20.078 l-5.6641 0 z M173.281625 19.531 c4.8242 0 7.4805 2.5 7.4805 6.9531 l0 13.516 l-5.6445 0 l0 -12.305 c0 -2.6758 -1.6602 -3.6523 -3.5938 -3.6523 c-2.3242 0 -4.4336 1.1719 -4.4727 4.8828 l0 11.074 l-5.625 0 l0 -20.078 l5.625 0 l0 2.2266 c1.4063 -1.6602 3.5742 -2.6172 6.2305 -2.6172 z M199.53078125 40 l-6.4648 -8.4375 l-1.1719 0 l0 8.4375 l-5.6836 0 l0 -30 l5.6836 0 l0 17.656 l1.0547 0 l6.3086 -7.7344 l6.3672 0 l-7.9102 9.3164 l8.6523 10.762 l-6.8359 0 z" fill = "#ffffff"></path></g></svg>